<svg xmlns="http://www.w3.org/2000/svg" xmlns:xlink="http://www.w3.org/1999/xlink" version="1.1" x="0px" y="0px" viewBox="0 0 24 30" enable-background="new 0 0 24 24" xml:space="preserve"><g><g><path d="M12,1.5C6.21,1.5,1.5,6.21,1.5,12c0,5.79,4.71,10.5,10.5,10.5S22.5,17.79,22.5,12C22.5,6.21,17.79,1.5,12,1.5z M12,21.58    c-5.282,0-9.58-4.297-9.58-9.58c0-5.282,4.298-9.58,9.58-9.58s9.58,4.298,9.58,9.58C21.58,17.283,17.282,21.58,12,21.58z     M11.544,11.707l-2.868-2.87c-0.162-0.162-0.424-0.162-0.586,0C7.929,9,7.929,9.262,8.09,9.423L10.665,12L8.09,14.576    c-0.161,0.162-0.161,0.424,0,0.586c0.081,0.082,0.188,0.121,0.293,0.121s0.212-0.039,0.293-0.121l2.868-2.869    C11.706,12.131,11.706,11.869,11.544,11.707z M15.617,8.716c-0.229,0-0.414,0.186-0.414,0.415v2.554l-2.846-2.847    c-0.163-0.162-0.425-0.162-0.587,0c-0.161,0.162-0.161,0.424,0,0.586L14.347,12l-2.576,2.576c-0.161,0.162-0.161,0.424,0,0.586    c0.081,0.082,0.188,0.121,0.293,0.121c0.106,0,0.213-0.039,0.294-0.121l2.846-2.847v2.554c0,0.229,0.186,0.414,0.414,0.414    c0.228,0,0.414-0.186,0.414-0.414V9.131C16.031,8.902,15.845,8.716,15.617,8.716z"/></g></g><text x="0" y="39" fill="#000000" font-size="5px" font-weight="bold" font-family="'Helvetica Neue', Helvetica, Arial-Unicode, Arial, Sans-serif">Created by Tancrède Chaleil</text><text x="0" y="44" fill="#000000" font-size="5px" font-weight="bold" font-family="'Helvetica Neue', Helvetica, Arial-Unicode, Arial, Sans-serif">from the Noun Project</text></svg>